<svg xmlns="http://www.w3.org/2000/svg" width="276" height="200" viewBox="0 0 276 200"><rect width="100%" height="100%" fill="#DDDDDD"/><path fill="#999999" d="M59.565 106.555h3.4q.94 0 1.58-.22.63-.23 1.02-.6.38-.38.55-.88.17-.5.17-1.06 0-.59-.19-1.05-.19-.47-.59-.8-.4-.34-1.03-.51-.63-.18-1.52-.18h-3.39v5.3Zm2.86-12.85h-2.86v5.23h2.68q1.72 0 2.6-.63.88-.62.88-1.98 0-1.42-.8-2.02-.8-.6-2.5-.6Zm-6.22-2.59h6.22q1.78 0 3.04.33 1.26.34 2.07.96.81.63 1.18 1.52.38.88.38 2 0 .63-.19 1.22-.19.58-.58 1.08-.4.51-1 .92-.61.41-1.45.7 3.73.84 3.73 4.03 0 1.15-.44 2.12-.44.98-1.27 1.68-.84.71-2.06 1.11-1.23.4-2.8.4h-6.83v-18.07Zm23.94 5.24h3.09v12.83h-1.89q-.61 0-.78-.56l-.21-1.03q-.79.8-1.74 1.3-.95.49-2.23.49-1.05 0-1.86-.36-.81-.35-1.36-1t-.83-1.55q-.28-.89-.28-1.96v-8.16h3.09v8.16q0 1.17.54 1.81.55.65 1.63.65.8 0 1.5-.36t1.33-.98v-9.28Zm6.24 0h3.1v12.83h-3.1v-12.83Zm3.52-3.73q0 .4-.16.75t-.43.61q-.27.26-.63.42-.37.15-.78.15-.4 0-.76-.15-.35-.16-.61-.42-.27-.26-.42-.61-.16-.35-.16-.75 0-.42.16-.78.15-.36.42-.62.26-.27.61-.42.36-.16.76-.16.41 0 .78.16.36.15.63.42.27.26.43.62.16.36.16.78Zm11.25 5.12-.7 1.11q-.12.2-.26.29-.14.08-.35.08-.23 0-.48-.13-.26-.12-.6-.28-.33-.16-.77-.28-.43-.13-1.01-.13-.92 0-1.44.39-.51.39-.51 1.01 0 .42.26.7.27.28.72.49.44.21 1 .38.57.17 1.15.37.58.2 1.14.46.56.25 1.01.65.44.39.71.94.27.55.27 1.33 0 .92-.33 1.7-.33.78-.98 1.35-.65.57-1.61.89-.96.32-2.21.32-.66 0-1.29-.12t-1.21-.33q-.58-.21-1.08-.5-.49-.29-.87-.63l.72-1.17q.13-.21.32-.33.19-.11.48-.11.28 0 .54.16.26.17.59.35.34.19.8.35.45.17 1.15.17.55 0 .95-.13.39-.14.65-.35.25-.21.37-.49t.12-.58q0-.45-.27-.74t-.71-.5q-.44-.21-1.01-.38-.57-.17-1.17-.37-.59-.2-1.16-.47-.57-.27-1.01-.68-.44-.41-.71-1.01-.27-.6-.27-1.45 0-.79.31-1.5.31-.72.92-1.25.61-.53 1.51-.85.91-.32 2.1-.32 1.32 0 2.41.44t1.81 1.15Zm10.99 0-.7 1.11q-.13.2-.26.29-.14.08-.35.08-.23 0-.49-.13-.25-.12-.59-.28-.34-.16-.77-.28-.43-.13-1.02-.13-.91 0-1.43.39-.52.39-.52 1.01 0 .42.27.7.27.28.71.49.45.21 1.01.38t1.14.37q.59.2 1.15.46.56.25 1 .65.45.39.72.94.27.55.27 1.33 0 .92-.34 1.7-.33.78-.98 1.35-.65.57-1.6.89-.96.32-2.21.32-.66 0-1.29-.12t-1.22-.33q-.58-.21-1.07-.5-.49-.29-.87-.63l.71-1.17q.14-.21.33-.33.19-.11.47-.11.29 0 .55.16.25.17.59.35.34.19.79.35.46.17 1.16.17.55 0 .94-.13.4-.14.65-.35.26-.21.38-.49t.12-.58q0-.45-.27-.74t-.71-.5q-.45-.21-1.02-.38-.56-.17-1.16-.37-.59-.2-1.16-.47-.57-.27-1.01-.68-.45-.41-.72-1.01-.26-.6-.26-1.45 0-.79.31-1.5.31-.72.92-1.25.6-.53 1.51-.85.91-.32 2.09-.32 1.33 0 2.42.44 1.08.44 1.81 1.15Zm5.14-.82.21 1.01q.39-.39.82-.72.43-.33.91-.56.48-.23 1.03-.36.55-.14 1.2-.14 1.05 0 1.86.36.82.36 1.36 1 .54.64.82 1.54.29.89.29 1.97v8.16h-3.09v-8.16q0-1.18-.54-1.82-.54-.65-1.64-.65-.8 0-1.5.37-.7.36-1.32.98v9.28h-3.09v-12.83h1.89q.6 0 .79.57Zm13.86 4.37h5.82q0-.6-.17-1.13-.16-.53-.5-.93-.34-.4-.86-.63-.52-.23-1.2-.23-1.34 0-2.11.76-.77.76-.98 2.16Zm7.87 1.86h-7.93q.07.99.35 1.71.27.72.72 1.19.45.47 1.07.7.62.23 1.37.23.75 0 1.29-.18.55-.17.95-.38.41-.22.71-.39.31-.18.6-.18.39 0 .57.29l.89 1.13q-.51.6-1.15 1-.64.41-1.33.65-.69.25-1.41.35-.72.1-1.4.1-1.33 0-2.48-.45-1.15-.44-2-1.31-.85-.87-1.34-2.15-.49-1.28-.49-2.97 0-1.31.43-2.47.42-1.15 1.21-2.01.8-.86 1.94-1.36 1.15-.5 2.58-.5 1.22 0 2.24.39 1.03.39 1.76 1.13.74.75 1.16 1.83.42 1.08.42 2.47 0 .7-.15.94t-.58.24Zm11.57-5.41-.7 1.11q-.13.2-.27.29-.13.08-.35.08-.22 0-.48-.13-.25-.12-.59-.28-.34-.16-.77-.28-.43-.13-1.02-.13-.91 0-1.43.39-.52.39-.52 1.01 0 .42.27.7.27.28.71.49.45.21 1.01.38t1.14.37q.58.2 1.15.46.56.25 1 .65.45.39.71.94.27.55.27 1.33 0 .92-.33 1.7-.33.78-.98 1.35-.65.57-1.61.89-.95.32-2.2.32-.66 0-1.3-.12-.63-.12-1.21-.33-.58-.21-1.07-.5-.5-.29-.87-.63l.71-1.17q.14-.21.33-.33.18-.11.47-.11t.54.16q.26.17.6.35.34.19.79.35.46.17 1.16.17.55 0 .94-.13.4-.14.65-.35.26-.21.38-.49t.12-.58q0-.45-.27-.74t-.72-.5q-.44-.21-1.01-.38-.57-.17-1.16-.37-.59-.2-1.16-.47-.57-.27-1.02-.68-.44-.41-.71-1.01-.27-.6-.27-1.45 0-.79.32-1.5.31-.72.91-1.25.61-.53 1.52-.85.9-.32 2.09-.32 1.33 0 2.41.44 1.09.44 1.82 1.15Zm10.98 0-.7 1.11q-.12.2-.26.29-.14.08-.35.08-.22 0-.48-.13-.26-.12-.59-.28-.34-.16-.77-.28-.43-.13-1.02-.13-.91 0-1.43.39-.52.39-.52 1.01 0 .42.27.7.27.28.71.49.44.21 1.01.38.56.17 1.14.37.58.2 1.14.46.57.25 1.01.65.44.39.71.94.27.55.27 1.33 0 .92-.33 1.7-.33.78-.98 1.35-.65.57-1.61.89-.95.32-2.2.32-.67 0-1.3-.12t-1.21-.33q-.58-.21-1.08-.5-.49-.29-.86-.63l.71-1.17q.14-.21.32-.33.19-.11.48-.11t.54.16q.26.17.6.35.33.19.79.35.46.17 1.16.17.55 0 .94-.13.39-.14.65-.35.26-.21.37-.49.12-.28.12-.58 0-.45-.27-.74-.26-.29-.71-.5-.44-.21-1.01-.38-.57-.17-1.16-.37-.6-.2-1.17-.47-.56-.27-1.01-.68-.44-.41-.71-1.01-.27-.6-.27-1.45 0-.79.31-1.5.32-.72.92-1.25.61-.53 1.51-.85.91-.32 2.1-.32 1.32 0 2.41.44t1.81 1.15Zm21.44 7.18q.28 0 .49.21l1.32 1.44q-1.1 1.36-2.7 2.08-1.61.73-3.86.73-2.01 0-3.62-.69-1.6-.69-2.74-1.91-1.14-1.23-1.75-2.93-.6-1.7-.6-3.71 0-2.04.65-3.73t1.83-2.92q1.18-1.22 2.82-1.9 1.64-.69 3.62-.69 1.98 0 3.51.65 1.53.65 2.61 1.7l-1.13 1.57q-.1.15-.26.26-.15.11-.43.11-.18 0-.38-.1-.2-.11-.44-.27-.24-.15-.55-.34-.31-.19-.73-.34-.41-.16-.95-.27-.55-.1-1.26-.1-1.21 0-2.22.43-1 .43-1.73 1.25-.72.82-1.12 2-.4 1.18-.4 2.69 0 1.53.43 2.71.43 1.19 1.17 2 .73.82 1.73 1.25 1 .43 2.15.43.69 0 1.25-.08.55-.07 1.02-.23.47-.17.89-.42.42-.26.83-.63.13-.12.26-.18.14-.07.29-.07Zm10.41.95v-2.17q-1.33.07-2.25.24-.91.16-1.46.43-.55.26-.79.61-.23.35-.23.76 0 .81.48 1.17.48.34 1.25.34.95 0 1.65-.34.69-.34 1.35-1.04Zm-6.52-6.74-.55-.99q2.21-2.02 5.32-2.02 1.13 0 2.02.37.88.36 1.5 1.02.61.66.93 1.57.32.91.32 2v8.1h-1.4q-.44 0-.68-.13-.24-.13-.37-.53l-.28-.93q-.49.44-.95.77-.46.33-.96.56-.5.22-1.07.34-.57.12-1.26.12-.81 0-1.5-.22-.68-.22-1.18-.66-.5-.43-.78-1.08-.27-.65-.27-1.52 0-.48.16-.96.16-.49.53-.92.37-.44.96-.83.58-.39 1.44-.67.86-.29 1.99-.47 1.14-.18 2.6-.22v-.75q0-1.29-.55-1.91-.55-.62-1.58-.62-.75 0-1.25.18-.49.17-.87.39-.37.22-.68.4-.3.17-.68.17-.32 0-.55-.17-.22-.17-.36-.39Zm15.16-2 .19 1.45q.6-1.15 1.42-1.81.83-.65 1.95-.65.89 0 1.43.38l-.2 2.32q-.06.22-.18.32-.12.09-.32.09-.19 0-.56-.06-.37-.07-.72-.07-.51 0-.91.15t-.72.44q-.32.28-.56.68-.24.4-.46.91v7.9h-3.08v-12.83h1.81q.47 0 .66.17.19.17.25.61Zm14.65 8.25v-5.75q-.52-.64-1.14-.9-.62-.26-1.33-.26-.7 0-1.27.26-.56.26-.96.79-.4.53-.61 1.35-.21.82-.21 1.93 0 1.13.18 1.91t.52 1.28q.33.49.82.71.49.22 1.09.22.96 0 1.64-.4.67-.4 1.27-1.14Zm0-14.77h3.09v18.57h-1.89q-.61 0-.77-.56l-.27-1.24q-.77.89-1.78 1.44-1 .55-2.34.55-1.05 0-1.93-.44-.87-.44-1.5-1.27-.63-.83-.98-2.06-.34-1.22-.34-2.8 0-1.42.39-2.65.38-1.22 1.11-2.12.72-.9 1.74-1.41 1.01-.5 2.27-.5 1.08 0 1.84.33.76.34 1.36.92v-6.76Z"/></svg>