<svg xmlns="http://www.w3.org/2000/svg" width="276" height="200" viewBox="0 0 276 200"><rect width="100%" height="100%" fill="#DDDDDD"/><path fill="#999999" d="M57.395 67.215h8.77v52.75h-8.77v-52.75Zm33.65 15.76q4.05 0 7.37 1.31 3.32 1.32 5.68 3.73t3.64 5.89q1.28 3.48 1.28 7.78 0 4.33-1.28 7.81-1.28 3.48-3.64 5.93-2.36 2.45-5.68 3.76-3.32 1.31-7.37 1.31-4.08 0-7.42-1.31-3.33-1.31-5.69-3.76-2.36-2.45-3.66-5.93-1.3-3.48-1.3-7.81 0-4.3 1.3-7.78 1.3-3.48 3.66-5.89 2.36-2.41 5.69-3.73 3.34-1.31 7.42-1.31Zm0 30.78q4.55 0 6.73-3.06 2.18-3.05 2.18-8.94t-2.18-8.98q-2.18-3.09-6.73-3.09-4.61 0-6.83 3.1-2.22 3.11-2.22 8.97 0 5.86 2.22 8.93 2.22 3.07 6.83 3.07Zm37.99-12.89q1.63 0 2.84-.44 1.21-.45 2-1.23.8-.78 1.21-1.88.41-1.1.41-2.41 0-2.7-1.62-4.28-1.61-1.58-4.84-1.58-3.23 0-4.85 1.58-1.61 1.58-1.61 4.28 0 1.27.41 2.38.4 1.1 1.2 1.89.8.8 2.03 1.25 1.22.44 2.82.44Zm9.9 20.73q0-1.06-.64-1.74-.63-.67-1.74-1.04-1.1-.38-2.57-.55-1.47-.18-3.12-.27-1.65-.09-3.41-.16-1.76-.07-3.43-.28-1.45.81-2.36 1.91-.9 1.1-.9 2.56 0 .96.48 1.79.48.84 1.52 1.44 1.05.6 2.72.94 1.67.34 4.08.34 2.45 0 4.23-.38 1.77-.37 2.92-1.02 1.16-.66 1.69-1.57.53-.9.53-1.97Zm-1.74-36.81h10.48v3.27q0 1.56-1.88 1.91l-3.27.61q.74 1.88.74 4.11 0 2.7-1.08 4.89-1.08 2.18-3 3.7-1.91 1.53-4.52 2.37-2.61.83-5.63.83-1.07 0-2.06-.11-.99-.1-1.95-.28-1.71 1.03-1.71 2.31 0 1.1 1.02 1.61 1.01.52 2.68.73 1.66.21 3.79.27 2.13.05 4.37.23 2.24.17 4.37.62 2.13.44 3.8 1.4 1.66.96 2.68 2.61 1.01 1.65 1.01 4.24 0 2.42-1.19 4.69-1.19 2.27-3.45 4.05-2.25 1.77-5.53 2.85-3.29 1.09-7.48 1.09-4.11 0-7.17-.8-3.05-.8-5.07-2.13-2.03-1.33-3.02-3.07-1-1.74-1-3.62 0-2.56 1.55-4.28 1.54-1.72 4.24-2.75-1.45-.75-2.31-1.99-.85-1.24-.85-3.27 0-.81.3-1.68.31-.87.89-1.73.59-.85 1.47-1.61.89-.76 2.1-1.37-2.77-1.49-4.35-3.97-1.58-2.49-1.58-5.83 0-2.69 1.08-4.88 1.09-2.18 3.02-3.72 1.94-1.55 4.58-2.37 2.64-.81 5.77-.81 2.34 0 4.4.48 2.06.48 3.76 1.4Zm32.13-1.81q4.05 0 7.37 1.31 3.32 1.32 5.68 3.73t3.64 5.89q1.27 3.48 1.27 7.78 0 4.33-1.27 7.81-1.28 3.48-3.64 5.93-2.36 2.45-5.68 3.76-3.32 1.31-7.37 1.31-4.08 0-7.42-1.31-3.33-1.31-5.7-3.76-2.36-2.45-3.65-5.93-1.3-3.48-1.3-7.81 0-4.3 1.3-7.78 1.29-3.48 3.65-5.89 2.37-2.41 5.7-3.73 3.34-1.31 7.42-1.31Zm0 30.78q4.55 0 6.73-3.06 2.18-3.05 2.18-8.94t-2.18-8.98q-2.18-3.09-6.73-3.09-4.61 0-6.83 3.1-2.22 3.11-2.22 8.97 0 5.86 2.22 8.93 2.22 3.07 6.83 3.07Zm48.89-26.27-1.99 3.16q-.36.56-.75.8-.39.23-.99.23-.64 0-1.37-.36-.73-.35-1.69-.8-.95-.44-2.18-.8-1.22-.35-2.89-.35-2.59 0-4.07 1.1-1.47 1.1-1.47 2.87 0 1.18.76 1.98.77.79 2.03 1.4 1.26.6 2.85 1.08 1.6.48 3.25 1.05 1.65.57 3.25 1.29 1.6.73 2.86 1.85 1.26 1.12 2.02 2.68.77 1.56.77 3.76 0 2.63-.95 4.85-.94 2.22-2.78 3.83-1.85 1.62-4.56 2.52-2.72.91-6.27.91-1.88 0-3.67-.34-1.8-.34-3.45-.94-1.65-.6-3.05-1.42t-2.47-1.78l2.03-3.33q.39-.61.92-.93.53-.31 1.35-.31.81 0 1.54.46t1.69.99q.96.53 2.25.99 1.3.47 3.29.47 1.56 0 2.68-.38 1.12-.37 1.84-.97.73-.61 1.07-1.4.34-.8.34-1.66 0-1.27-.77-2.09-.76-.82-2.02-1.42t-2.88-1.08q-1.61-.48-3.3-1.05-1.68-.57-3.3-1.33-1.62-.76-2.88-1.94-1.26-1.17-2.02-2.87-.76-1.71-.76-4.12 0-2.24.89-4.26.88-2.02 2.6-3.53 1.73-1.51 4.3-2.42 2.57-.9 5.95-.9 3.76 0 6.85 1.24t5.15 3.27Z"/></svg>