<svg xmlns="http://www.w3.org/2000/svg" width="276" height="200" viewBox="0 0 276 200"><rect width="100%" height="100%" fill="#DDDDDD"/><path fill="#999999" d="M78.535 86.07h3.25v23.14h-3.79V94.27q0-.9.1-1.94l-7 13.14q-.49.94-1.52.94h-.6q-1.03 0-1.52-.94l-7.08-13.19q.05.53.08 1.04.04.51.04.95v14.94h-3.8V86.07h3.25q.29 0 .5.02.21.02.37.08.17.06.31.21.13.14.26.38l6.93 12.85q.27.51.5 1.06.24.54.46 1.12.22-.6.46-1.15.24-.55.52-1.06l6.83-12.82q.13-.24.27-.38.14-.15.31-.21.17-.06.38-.08.21-.02.49-.02Zm15.04 6.47q1.83 0 3.32.59 1.5.59 2.56 1.68 1.07 1.09 1.64 2.66.58 1.56.58 3.5 0 1.95-.58 3.52-.57 1.57-1.64 2.67-1.06 1.11-2.56 1.7-1.49.59-3.32.59-1.84 0-3.34-.59-1.5-.59-2.57-1.7-1.06-1.1-1.65-2.67-.58-1.57-.58-3.52 0-1.94.58-3.5.59-1.57 1.65-2.66 1.07-1.09 2.57-1.68 1.5-.59 3.34-.59Zm0 13.87q2.05 0 3.04-1.38.98-1.37.98-4.03 0-2.65-.98-4.05-.99-1.39-3.04-1.39-2.08 0-3.08 1.4t-1 4.04q0 2.64 1 4.03 1 1.38 3.08 1.38Zm15.08-8.82v7.36q.67.82 1.46 1.16.79.33 1.67.33.91 0 1.64-.33.73-.32 1.24-1.02t.79-1.78q.27-1.08.27-2.58 0-2.7-.9-3.91-.89-1.21-2.57-1.21-1.14 0-1.99.52-.85.52-1.61 1.46Zm0-12.16v9.38q.99-1.04 2.2-1.66 1.2-.61 2.76-.61 1.42 0 2.56.56 1.15.56 1.96 1.61.8 1.04 1.24 2.53.43 1.49.43 3.35 0 2-.5 3.63-.49 1.63-1.41 2.79-.92 1.16-2.22 1.8-1.3.64-2.88.64-.77 0-1.39-.15-.63-.15-1.15-.43-.53-.27-.97-.66-.44-.39-.84-.87l-.18 1.1q-.09.42-.33.59-.23.18-.63.18h-2.61V85.43h3.96Zm14.33 7.36h3.97v16.42h-3.97V92.79Zm4.51-4.78q0 .51-.2.96-.21.45-.56.78-.34.34-.8.54-.47.2-1 .2-.51 0-.96-.2-.46-.2-.8-.54-.33-.33-.53-.78t-.2-.96q0-.53.2-.99.2-.47.53-.8.34-.34.8-.54.45-.2.96-.2.53 0 1 .2.46.2.8.54.35.33.56.8.2.46.2.99Zm3.54-2.58h3.95v23.78h-3.95V85.43Zm11.02 13.68h7.46q0-.76-.22-1.44-.21-.68-.64-1.2-.44-.51-1.1-.8-.66-.3-1.54-.3-1.72 0-2.7.98-.98.97-1.26 2.76Zm10.08 2.39h-10.16q.1 1.26.45 2.18.35.92.93 1.52.58.6 1.37.9.79.29 1.75.29t1.66-.22q.69-.22 1.21-.5.52-.27.91-.49.4-.23.76-.23.5 0 .74.37l1.14 1.44q-.66.77-1.48 1.29-.81.52-1.7.83-.89.31-1.81.44t-1.78.13q-1.71 0-3.19-.57-1.47-.57-2.56-1.68-1.08-1.11-1.71-2.75-.62-1.64-.62-3.8 0-1.68.54-3.16.55-1.48 1.56-2.58 1.02-1.09 2.48-1.73 1.47-.64 3.31-.64 1.55 0 2.86.49 1.31.5 2.26 1.45.94.95 1.48 2.34.53 1.38.53 3.16 0 .89-.19 1.21-.19.31-.74.31Zm17.16-1.03h7.36l-2.82-7.69q-.21-.51-.43-1.22-.23-.7-.45-1.52-.21.82-.43 1.53-.23.71-.43 1.24l-2.8 7.66Zm5.87-14.4 9.09 23.14h-3.33q-.56 0-.91-.28-.36-.28-.53-.7l-1.73-4.72h-9.58l-1.73 4.72q-.13.37-.5.68-.37.3-.91.3h-3.36l9.1-23.14h4.39Zm14.81 11.52v7.36q.68.82 1.47 1.16.79.33 1.72.33.89 0 1.61-.33.72-.34 1.23-1.03.5-.69.77-1.73.28-1.05.28-2.48 0-1.44-.24-2.44-.23-1-.66-1.62-.43-.62-1.05-.91-.61-.29-1.4-.29-1.23 0-2.09.52-.87.52-1.64 1.46Zm-.52-4.08.32 1.52q1-1.13 2.28-1.84 1.28-.7 3.01-.7 1.35 0 2.46.56 1.11.56 1.92 1.62.81 1.07 1.25 2.63.44 1.56.44 3.57 0 1.84-.5 3.41t-1.42 2.72q-.92 1.15-2.22 1.8-1.3.65-2.92.65-1.38 0-2.35-.42-.98-.43-1.75-1.18v6.72h-3.95V92.79h2.42q.77 0 1.01.72Zm18.7 4.08v7.36q.67.82 1.46 1.16.8.33 1.72.33.9 0 1.62-.33.72-.34 1.22-1.03.51-.69.78-1.73.27-1.05.27-2.48 0-1.44-.23-2.44t-.66-1.62q-.44-.62-1.05-.91-.62-.29-1.4-.29-1.23 0-2.1.52-.86.52-1.63 1.46Zm-.53-4.08.32 1.52q1.01-1.13 2.29-1.84 1.28-.7 3.01-.7 1.34 0 2.45.56 1.12.56 1.92 1.62.81 1.07 1.25 2.63.44 1.56.44 3.57 0 1.84-.49 3.41-.5 1.57-1.42 2.72-.92 1.15-2.22 1.8-1.31.65-2.92.65-1.38 0-2.36-.42-.97-.43-1.74-1.18v6.72h-3.95V92.79h2.41q.77 0 1.01.72Z"/></svg>