<svg xmlns="http://www.w3.org/2000/svg" width="276" height="200" viewBox="0 0 276 200"><rect width="100%" height="100%" fill="#DDDDDD"/><path fill="#999999" d="m70.24 87.85-1.11 2.1q-.2.35-.42.5-.22.16-.55.16-.35 0-.75-.26-.41-.25-.97-.56-.56-.32-1.31-.57-.75-.26-1.77-.26-.93 0-1.62.22-.69.23-1.16.62-.48.4-.71.95-.23.55-.23 1.21 0 .85.47 1.41.47.56 1.25.95.77.4 1.76.71.99.32 2.03.67 1.04.36 2.03.83.99.47 1.77 1.18.77.72 1.24 1.76t.47 2.53q0 1.61-.55 3.02t-1.61 2.46q-1.07 1.05-2.6 1.65-1.54.6-3.52.6-1.14 0-2.24-.22-1.11-.22-2.12-.63-1.02-.42-1.91-.99-.89-.58-1.58-1.29l1.3-2.13q.17-.23.43-.39.26-.15.56-.15.41 0 .89.33.48.34 1.14.75.66.42 1.54.76.89.33 2.12.33 1.9 0 2.94-.9 1.04-.89 1.04-2.58 0-.94-.47-1.53-.47-.6-1.25-1-.77-.4-1.76-.69-.99-.28-2.01-.61-1.03-.33-2.02-.79t-1.76-1.2q-.78-.74-1.25-1.86-.47-1.11-.47-2.75 0-1.3.52-2.54.52-1.23 1.51-2.19t2.44-1.54q1.45-.57 3.34-.57 2.11 0 3.89.66 1.78.66 3.04 1.84Zm9.29 21.88q-2.22 0-3.4-1.24-1.18-1.25-1.18-3.44v-9.46h-1.73q-.33 0-.56-.21-.23-.22-.23-.64v-1.62l2.72-.45.86-4.62q.08-.33.31-.51.24-.18.6-.18h2.11v5.33h4.52v2.9h-4.52v9.18q0 .79.39 1.23.39.45 1.06.45.38 0 .64-.09.25-.09.44-.19t.34-.19q.15-.09.3-.09.18 0 .3.09.11.09.24.27l1.22 1.98q-.89.75-2.04 1.12-1.16.38-2.39.38Zm15.57-4.63v-2.86q-1.76.09-2.97.31-1.2.22-1.93.57-.73.34-1.04.81-.31.46-.31 1 0 1.07.63 1.54.64.46 1.66.46 1.26 0 2.17-.45.92-.46 1.79-1.38Zm-8.61-8.9-.73-1.3q2.92-2.67 7.03-2.67 1.49 0 2.66.48 1.17.49 1.98 1.36.81.86 1.23 2.07.42 1.2.42 2.64v10.69h-1.85q-.58 0-.89-.17-.31-.18-.5-.7l-.36-1.23q-.64.58-1.25 1.02-.61.44-1.27.73-.66.3-1.41.46-.76.15-1.66.15-1.08 0-1.98-.28-.91-.29-1.57-.87-.66-.58-1.02-1.44-.37-.85-.37-1.99 0-.65.22-1.28.21-.64.7-1.21.49-.58 1.26-1.09.78-.52 1.91-.89 1.13-.38 2.63-.62t3.43-.29v-.99q0-1.7-.72-2.52-.73-.82-2.1-.82-.99 0-1.64.24-.65.23-1.15.52-.49.28-.9.52-.4.23-.9.23-.43 0-.72-.23-.3-.22-.48-.52Zm29.62-1.56-1.08 1.48q-.18.23-.35.36-.17.14-.5.14-.32 0-.62-.19-.29-.19-.7-.43-.42-.24-.99-.43-.57-.19-1.41-.19-1.07 0-1.88.39-.81.38-1.34 1.11-.54.73-.8 1.76-.27 1.03-.27 2.33 0 1.36.29 2.41.29 1.06.83 1.78.55.71 1.32 1.08.78.38 1.75.38.98 0 1.58-.24.6-.24 1.01-.53.42-.29.72-.53.31-.24.69-.24.49 0 .74.38l1.17 1.49q-.68.79-1.47 1.32-.79.54-1.64.86-.85.32-1.75.46-.9.13-1.79.13-1.57 0-2.95-.59-1.39-.58-2.43-1.71-1.04-1.12-1.64-2.74-.6-1.63-.6-3.71 0-1.86.53-3.45.54-1.6 1.58-2.76 1.04-1.16 2.57-1.82 1.54-.66 3.54-.66 1.89 0 3.32.61t2.57 1.75Zm8.34 15.09q-2.21 0-3.39-1.24-1.18-1.25-1.18-3.44v-9.46h-1.73q-.33 0-.56-.21-.23-.22-.23-.64v-1.62l2.72-.45.86-4.62q.08-.33.31-.51.23-.18.6-.18h2.11v5.33h4.52v2.9h-4.52v9.18q0 .79.39 1.23.39.45 1.06.45.38 0 .64-.09.25-.09.44-.19t.34-.19q.15-.09.3-.09.18 0 .29.09.12.09.25.27l1.22 1.98q-.89.75-2.04 1.12-1.16.38-2.4.38Zm6.77-17.19h4.09v16.93h-4.09V92.54Zm4.65-4.93q0 .53-.21.99-.22.46-.57.81-.36.34-.83.55-.48.21-1.03.21-.53 0-1-.21t-.81-.55q-.35-.35-.56-.81-.2-.46-.2-.99 0-.55.2-1.03.21-.47.56-.82.34-.35.81-.55.47-.21 1-.21.55 0 1.03.21.47.2.83.55.35.35.57.82.21.48.21 1.03Zm11.09 4.67q1.88 0 3.42.61 1.55.61 2.64 1.73 1.1 1.12 1.7 2.74.59 1.62.59 3.61 0 2.02-.59 3.63-.6 1.62-1.7 2.76-1.09 1.14-2.64 1.75-1.54.61-3.42.61-1.9 0-3.45-.61-1.55-.61-2.65-1.75-1.09-1.14-1.7-2.76-.6-1.61-.6-3.63 0-1.99.6-3.61.61-1.62 1.7-2.74 1.1-1.12 2.65-1.73 1.55-.61 3.45-.61Zm0 14.3q2.11 0 3.13-1.42 1.01-1.42 1.01-4.15 0-2.74-1.01-4.18-1.02-1.43-3.13-1.43-2.14 0-3.18 1.44-1.03 1.44-1.03 4.17 0 2.72 1.03 4.15 1.04 1.42 3.18 1.42Zm15-13.3.28 1.34q.51-.51 1.08-.95.57-.44 1.2-.74.64-.31 1.37-.48.72-.17 1.58-.17 1.39 0 2.46.47t1.79 1.32q.72.85 1.09 2.03.37 1.18.37 2.6v10.77h-4.08V98.7q0-1.56-.71-2.41-.71-.85-2.16-.85-1.05 0-1.98.48-.92.48-1.75 1.31v12.24h-4.07V92.54h2.49q.79 0 1.04.74Zm24.02 11.82v-2.86q-1.76.09-2.97.31-1.2.22-1.93.57-.72.34-1.04.81-.31.46-.31 1 0 1.07.63 1.54.64.46 1.66.46 1.26 0 2.17-.45.92-.46 1.79-1.38Zm-8.61-8.9-.73-1.3q2.92-2.67 7.03-2.67 1.49 0 2.66.48 1.17.49 1.98 1.36.81.86 1.23 2.07.42 1.2.42 2.64v10.69h-1.85q-.58 0-.89-.17-.31-.18-.49-.7l-.37-1.23q-.64.58-1.25 1.02-.61.44-1.27.73-.66.3-1.41.46-.75.15-1.66.15-1.07 0-1.98-.28-.91-.29-1.57-.87-.66-.58-1.02-1.44-.36-.85-.36-1.99 0-.65.21-1.28.21-.64.7-1.21.49-.58 1.26-1.09.78-.52 1.91-.89 1.13-.38 2.63-.62t3.43-.29v-.99q0-1.7-.72-2.52-.73-.82-2.1-.82-.99 0-1.64.24-.65.23-1.15.52-.49.28-.9.52-.4.23-.9.23-.42 0-.72-.23-.3-.22-.48-.52Zm20.01-2.64.25 1.92q.79-1.52 1.88-2.39 1.09-.86 2.58-.86 1.17 0 1.88.51l-.27 3.05q-.08.3-.23.42-.16.13-.43.13-.24 0-.73-.09-.49-.08-.95-.08-.68 0-1.2.2-.53.2-.95.57-.42.37-.74.9-.33.53-.61 1.2v10.43h-4.07V92.54h2.39q.63 0 .87.22.25.23.33.8Zm20.83-1.02h3.26l-9.22 21.58q-.18.43-.47.65-.29.23-.88.23h-3.04l3.17-6.8-6.85-15.66h3.58q.48 0 .75.23.28.23.41.53l3.6 8.78q.18.44.3.89.12.44.24.91.15-.47.3-.92.15-.45.33-.9l3.4-8.76q.13-.33.43-.54.31-.22.69-.22Z"/></svg>