<svg xmlns="http://www.w3.org/2000/svg" width="276" height="200" viewBox="0 0 276 200"><rect width="100%" height="100%" fill="#DDDDDD"/><path fill="#999999" d="M88.73 84.33h3.8l-8.08 26.03h-4.37l-5.69-17.78q-.24-.65-.43-1.59-.11.45-.22.85-.11.39-.23.74l-5.75 17.78h-4.39l-8.06-26.03h4.05q.63 0 1.05.3.42.3.57.8L65.41 101q.14.58.27 1.25.14.68.28 1.41.15-.75.32-1.42.17-.66.37-1.24l5.11-15.57q.14-.41.57-.76.42-.34 1.03-.34h1.42q.63 0 1.03.31.4.3.59.79L81.5 101q.38 1.12.68 2.57.24-1.42.52-2.57l4.43-15.57q.11-.45.55-.77.44-.33 1.05-.33Zm16.06 21.26v-3.11q-1.93.09-3.24.33-1.31.24-2.11.62-.79.38-1.13.88-.34.51-.34 1.1 0 1.17.69 1.67.69.51 1.81.51 1.37 0 2.37-.5 1-.49 1.95-1.5Zm-9.4-9.7-.79-1.42q3.19-2.92 7.67-2.92 1.62 0 2.9.53 1.28.53 2.16 1.48.88.94 1.34 2.26.46 1.31.46 2.88v11.66h-2.02q-.63 0-.97-.19-.34-.19-.54-.76l-.4-1.34q-.7.63-1.36 1.11-.67.48-1.39.8-.72.33-1.54.5-.82.17-1.81.17-1.17 0-2.16-.32-.99-.31-1.71-.94-.72-.63-1.11-1.57-.4-.93-.4-2.18 0-.7.23-1.39.24-.69.77-1.32.53-.63 1.38-1.19.84-.56 2.07-.97 1.24-.42 2.88-.68 1.63-.26 3.74-.31V98.7q0-1.86-.79-2.75-.79-.89-2.29-.89-1.08 0-1.79.25t-1.25.57q-.54.31-.98.57-.44.25-.98.25-.47 0-.79-.25-.33-.24-.53-.56Zm17.97-12.28h4.44v26.75h-4.44V83.61Zm8.94 0h4.45v26.75h-4.45V83.61Zm13.34 13.68v8.28q.76.92 1.65 1.3.89.38 1.93.38 1.01 0 1.82-.38t1.38-1.15q.57-.78.87-1.96.31-1.18.31-2.78 0-1.62-.26-2.74-.26-1.13-.75-1.83-.49-.7-1.18-1.03-.69-.32-1.57-.32-1.39 0-2.36.58-.97.59-1.84 1.65Zm-.59-4.59.36 1.71q1.13-1.28 2.57-2.07 1.44-.79 3.39-.79 1.51 0 2.76.63 1.25.63 2.16 1.83.91 1.19 1.4 2.95.5 1.75.5 4.02 0 2.07-.56 3.84-.56 1.76-1.59 3.06-1.04 1.29-2.51 2.02-1.46.73-3.28.73-1.55 0-2.65-.48-1.09-.47-1.96-1.32v7.56h-4.44v-24.5h2.71q.87 0 1.14.81Zm26.35 12.89v-3.11q-1.93.09-3.24.33-1.31.24-2.11.62-.79.38-1.13.88-.34.51-.34 1.1 0 1.17.69 1.67.69.51 1.81.51 1.37 0 2.37-.5 1-.49 1.95-1.5Zm-9.4-9.7-.79-1.42q3.19-2.92 7.67-2.92 1.62 0 2.9.53 1.28.53 2.16 1.48.88.94 1.34 2.26.46 1.31.46 2.88v11.66h-2.02q-.63 0-.97-.19-.34-.19-.54-.76l-.4-1.34q-.7.63-1.36 1.11-.67.48-1.39.8-.72.33-1.54.5-.82.17-1.81.17-1.17 0-2.16-.32-.99-.31-1.71-.94-.72-.63-1.11-1.57-.4-.93-.4-2.18 0-.7.23-1.39.24-.69.77-1.32.53-.63 1.38-1.19.84-.56 2.08-.97 1.23-.42 2.87-.68 1.63-.26 3.74-.31V98.7q0-1.86-.79-2.75-.79-.89-2.29-.89-1.08 0-1.79.25t-1.25.57q-.54.31-.98.57-.44.25-.98.25-.47 0-.79-.25-.33-.24-.53-.56Zm22.36 1.4v8.28q.76.92 1.65 1.3.89.38 1.93.38 1.01 0 1.82-.38t1.38-1.15q.56-.78.87-1.96.31-1.18.31-2.78 0-1.62-.26-2.74-.27-1.13-.75-1.83-.49-.7-1.18-1.03-.69-.32-1.58-.32-1.38 0-2.35.58-.98.59-1.84 1.65Zm-.59-4.59.36 1.71q1.13-1.28 2.57-2.07 1.44-.79 3.38-.79 1.52 0 2.77.63t2.16 1.83q.91 1.19 1.4 2.95.5 1.75.5 4.02 0 2.07-.56 3.84-.56 1.76-1.59 3.06-1.04 1.29-2.51 2.02-1.46.73-3.28.73-1.55 0-2.65-.48-1.1-.47-1.96-1.32v7.56h-4.45v-24.5h2.72q.87 0 1.14.81Zm20.1 6.3h8.39q0-.86-.24-1.63-.25-.76-.73-1.34-.49-.57-1.23-.91-.75-.33-1.74-.33-1.93 0-3.03 1.1-1.11 1.1-1.42 3.11Zm11.34 2.68h-11.43q.11 1.43.51 2.46.39 1.04 1.04 1.71.65.68 1.54 1.01.89.33 1.97.33t1.86-.25q.79-.25 1.37-.56.59-.3 1.03-.56.44-.25.85-.25.56 0 .83.42l1.28 1.62q-.74.86-1.66 1.44-.92.59-1.91.94-1 .35-2.04.5-1.03.14-2.01.14-1.92 0-3.58-.64-1.65-.64-2.88-1.89-1.22-1.25-1.92-3.1-.71-1.84-.71-4.27 0-1.89.62-3.56.61-1.66 1.75-2.89 1.14-1.24 2.79-1.96 1.65-.72 3.72-.72 1.74 0 3.22.56 1.48.56 2.54 1.63 1.06 1.07 1.66 2.63.61 1.56.61 3.55 0 1.01-.22 1.36-.22.35-.83.35Zm8.3-8.67.27 2.09q.86-1.66 2.05-2.61 1.19-.94 2.81-.94 1.28 0 2.05.56l-.29 3.33q-.09.32-.26.46-.17.13-.46.13-.27 0-.8-.09t-1.03-.09q-.74 0-1.32.22-.57.21-1.03.62-.46.4-.81.98-.35.58-.66 1.31v11.38h-4.44V91.89h2.61q.68 0 .95.24.27.25.36.88Z"/></svg>