<svg xmlns="http://www.w3.org/2000/svg" width="276" height="200" viewBox="0 0 276 200"><rect width="100%" height="100%" fill="#DDDDDD"/><path fill="#999999" d="M92.12 85.78h4.22l-8.98 28.92H82.5l-6.32-19.76q-.26-.72-.48-1.76-.12.5-.24.94-.12.44-.26.82l-6.38 19.76h-4.88l-8.96-28.92h4.5q.7 0 1.17.33t.63.89l4.92 17.3q.16.64.31 1.39.15.75.31 1.57.16-.84.35-1.58.19-.74.41-1.38L73.26 87q.16-.46.63-.84.47-.38 1.15-.38h1.58q.7 0 1.14.34.44.34.66.88l5.66 17.3q.42 1.24.76 2.86.26-1.58.58-2.86L90.34 87q.12-.5.61-.86t1.17-.36Zm10.9 16.3h9.32q0-.96-.27-1.81-.27-.85-.81-1.49t-1.37-1.01q-.83-.37-1.93-.37-2.14 0-3.37 1.22t-1.57 3.46Zm12.6 2.98h-12.7q.12 1.58.56 2.73.44 1.15 1.16 1.9t1.71 1.12q.99.37 2.19.37t2.07-.28q.87-.28 1.52-.62.65-.34 1.14-.62.49-.28.95-.28.62 0 .92.46l1.42 1.8q-.82.96-1.84 1.61-1.02.65-2.13 1.04-1.11.39-2.26.55-1.15.16-2.23.16-2.14 0-3.98-.71-1.84-.71-3.2-2.1-1.36-1.39-2.14-3.44T98 104q0-2.1.68-3.95t1.95-3.22q1.27-1.37 3.1-2.17 1.83-.8 4.13-.8 1.94 0 3.58.62 1.64.62 2.82 1.81t1.85 2.92q.67 1.73.67 3.95 0 1.12-.24 1.51-.24.39-.92.39Zm9.8-4.88v9.2q.84 1.02 1.83 1.44.99.42 2.09.42 1.14 0 2.05-.41.91-.41 1.55-1.28.64-.87.98-2.22.34-1.35.34-3.23 0-3.38-1.12-4.89-1.12-1.51-3.22-1.51-1.42 0-2.48.65t-2.02 1.83Zm0-15.2V96.7q1.24-1.3 2.75-2.07 1.51-.77 3.45-.77 1.78 0 3.21.7t2.44 2.01q1.01 1.31 1.55 3.17.54 1.86.54 4.18 0 2.5-.62 4.54t-1.77 3.49q-1.15 1.45-2.77 2.25t-3.6.8q-.96 0-1.74-.19t-1.44-.53q-.66-.34-1.21-.83-.55-.49-1.05-1.09l-.22 1.38q-.12.52-.41.74-.29.22-.79.22h-3.26V84.98h4.94Zm31.4 11.42-1.12 1.78q-.2.32-.42.45-.22.13-.56.13-.36 0-.77-.2-.41-.2-.95-.45t-1.23-.45q-.69-.2-1.63-.2-1.46 0-2.29.62-.83.62-.83 1.62 0 .66.43 1.11.43.45 1.14.79t1.61.61q.9.27 1.83.59.93.32 1.83.73t1.61 1.04q.71.63 1.14 1.51.43.88.43 2.12 0 1.48-.53 2.73t-1.57 2.16q-1.04.91-2.57 1.42-1.53.51-3.53.51-1.06 0-2.07-.19-1.01-.19-1.94-.53-.93-.34-1.72-.8-.79-.46-1.39-1l1.14-1.88q.22-.34.52-.52.3-.18.76-.18t.87.26q.41.26.95.56.54.3 1.27.56.73.26 1.85.26.88 0 1.51-.21t1.04-.55q.41-.34.6-.79t.19-.93q0-.72-.43-1.18-.43-.46-1.14-.8t-1.62-.61q-.91-.27-1.86-.59-.95-.32-1.86-.75-.91-.43-1.62-1.09-.71-.66-1.14-1.62-.43-.96-.43-2.32 0-1.26.5-2.4t1.47-1.99q.97-.85 2.42-1.36 1.45-.51 3.35-.51 2.12 0 3.86.7 1.74.7 2.9 1.84Zm4.1-2.22h4.96v20.52h-4.96V94.18Zm5.64-5.98q0 .64-.26 1.2-.26.56-.69.98-.43.42-1.01.67-.58.25-1.24.25-.64 0-1.21-.25t-.99-.67q-.42-.42-.67-.98-.25-.56-.25-1.2 0-.66.25-1.24t.67-1q.42-.42.99-.67.57-.25 1.21-.25.66 0 1.24.25t1.01.67q.43.42.69 1 .26.58.26 1.24Zm11.2 26.82q-2.68 0-4.11-1.51-1.43-1.51-1.43-4.17V97.88h-2.1q-.4 0-.68-.26t-.28-.78v-1.96l3.3-.54 1.04-5.6q.1-.4.38-.62.28-.22.72-.22h2.56v6.46h5.48v3.52h-5.48V109q0 .96.47 1.5t1.29.54q.46 0 .77-.11t.54-.23q.23-.12.41-.23.18-.11.36-.11.22 0 .36.11.14.11.3.33l1.48 2.4q-1.08.9-2.48 1.36-1.4.46-2.9.46Zm11.94-12.94h9.32q0-.96-.27-1.81-.27-.85-.81-1.49t-1.37-1.01q-.83-.37-1.93-.37-2.14 0-3.37 1.22t-1.57 3.46Zm12.6 2.98h-12.7q.12 1.58.56 2.73.44 1.15 1.16 1.9t1.71 1.12q.99.37 2.19.37t2.07-.28q.87-.28 1.52-.62.65-.34 1.14-.62.49-.28.95-.28.62 0 .92.46l1.42 1.8q-.82.96-1.84 1.61-1.02.65-2.13 1.04-1.11.39-2.26.55-1.15.16-2.23.16-2.14 0-3.98-.71-1.84-.71-3.2-2.1-1.36-1.39-2.14-3.44t-.78-4.75q0-2.1.68-3.95t1.95-3.22q1.27-1.37 3.1-2.17 1.83-.8 4.13-.8 1.94 0 3.58.62 1.64.62 2.82 1.81t1.85 2.92q.67 1.73.67 3.95 0 1.12-.24 1.51-.24.39-.92.39Zm18.5-8.66-1.12 1.78q-.2.32-.42.45-.22.13-.56.13-.36 0-.77-.2-.41-.2-.95-.45t-1.23-.45q-.69-.2-1.63-.2-1.46 0-2.29.62-.83.62-.83 1.62 0 .66.43 1.11.43.45 1.14.79t1.61.61q.9.27 1.83.59.93.32 1.83.73t1.61 1.04q.71.63 1.14 1.51.43.88.43 2.12 0 1.48-.53 2.73t-1.57 2.16q-1.04.91-2.57 1.42-1.53.51-3.53.51-1.06 0-2.07-.19-1.01-.19-1.94-.53-.93-.34-1.72-.8-.79-.46-1.39-1l1.14-1.88q.22-.34.52-.52.3-.18.76-.18t.87.26q.41.26.95.56.54.3 1.27.56.73.26 1.85.26.88 0 1.51-.21t1.04-.55q.41-.34.6-.79t.19-.93q0-.72-.43-1.18-.43-.46-1.14-.8t-1.62-.61q-.91-.27-1.86-.59-.95-.32-1.86-.75-.91-.43-1.62-1.09-.71-.66-1.14-1.62-.43-.96-.43-2.32 0-1.26.5-2.4t1.47-1.99q.97-.85 2.42-1.36 1.45-.51 3.35-.51 2.12 0 3.86.7 1.74.7 2.9 1.84Z"/></svg>